<svg version="1.2" xmlns="http://www.w3.org/2000/svg" viewBox="0 0 732 765" width="732" height="765">
	<title>polygon-svg</title>
	<defs>
		<radialGradient id="g1" cx="433.9" cy="446.3" r="310.1" gradientUnits="userSpaceOnUse">
			<stop offset="0" stop-color="#57595f"/>
			<stop offset=".22" stop-color="#53555b"/>
			<stop offset=".52" stop-color="#494b51"/>
			<stop offset=".89" stop-color="#393b41"/>
			<stop offset="1" stop-color="#34353c"/>
		</radialGradient>
		<radialGradient id="g2" cx="612.4" cy="156.5" r="47.9" gradientUnits="userSpaceOnUse">
			<stop offset="0" stop-color="#34353c"/>
			<stop offset=".21" stop-color="#313239"/>
			<stop offset=".51" stop-color="#292a30"/>
			<stop offset=".86" stop-color="#1a1b20"/>
			<stop offset="1" stop-color="#121317"/>
		</radialGradient>
		<radialGradient id="g3" cx="673.1" cy="65.5" r="60.6" gradientUnits="userSpaceOnUse">
			<stop offset="0" stop-color="#34353c"/>
			<stop offset=".21" stop-color="#313239"/>
			<stop offset=".51" stop-color="#292a30"/>
			<stop offset=".86" stop-color="#1a1b20"/>
			<stop offset="1" stop-color="#121317"/>
		</radialGradient>
		<radialGradient id="g4" cx="167.7" cy="671.8" r="52.9" gradientUnits="userSpaceOnUse">
			<stop offset="0" stop-color="#484a52"/>
			<stop offset="1" stop-color="#34353c"/>
		</radialGradient>
		<radialGradient id="g5" cx="218.1" cy="682.6" r="16.9" gradientUnits="userSpaceOnUse">
			<stop offset="0" stop-color="#34353c"/>
			<stop offset=".21" stop-color="#313239"/>
			<stop offset=".51" stop-color="#292a30"/>
			<stop offset=".86" stop-color="#1a1b20"/>
			<stop offset="1" stop-color="#121317"/>
		</radialGradient>
		<radialGradient id="g6" cx="181.5" cy="719.2" r="47.3" gradientUnits="userSpaceOnUse">
			<stop offset="0" stop-color="#34353c"/>
			<stop offset=".21" stop-color="#313239"/>
			<stop offset=".51" stop-color="#292a30"/>
			<stop offset=".86" stop-color="#1a1b20"/>
			<stop offset="1" stop-color="#121317"/>
		</radialGradient>
		<radialGradient id="g7" cx="253.5" cy="505.8" r="68.2" gradientUnits="userSpaceOnUse">
			<stop offset="0" stop-color="#34353c"/>
			<stop offset=".21" stop-color="#313239"/>
			<stop offset=".51" stop-color="#292a30"/>
			<stop offset=".86" stop-color="#1a1b20"/>
			<stop offset="1" stop-color="#121317"/>
		</radialGradient>
		<radialGradient id="g8" cx="140.5" cy="617.8" r="68.2" gradientUnits="userSpaceOnUse">
			<stop offset="0" stop-color="#34353c"/>
			<stop offset=".21" stop-color="#313239"/>
			<stop offset=".51" stop-color="#292a30"/>
			<stop offset=".86" stop-color="#1a1b20"/>
			<stop offset="1" stop-color="#121317"/>
		</radialGradient>
		<radialGradient id="g9" cx="320.9" cy="438.4" r="23.1" gradientUnits="userSpaceOnUse">
			<stop offset="0" stop-color="#57595f"/>
			<stop offset="1" stop-color="#34353c"/>
		</radialGradient>
		<radialGradient id="g10" cx="74" cy="704.6" r="60.6" gradientUnits="userSpaceOnUse">
			<stop offset="0" stop-color="#57595f"/>
			<stop offset="1" stop-color="#34353c"/>
		</radialGradient>
		<radialGradient id="g11" cx="468.9" cy="203.3" r="35" gradientUnits="userSpaceOnUse">
			<stop offset="0" stop-color="#34353c"/>
			<stop offset=".21" stop-color="#313239"/>
			<stop offset=".51" stop-color="#292a30"/>
			<stop offset=".86" stop-color="#1a1b20"/>
			<stop offset="1" stop-color="#121317"/>
		</radialGradient>
		<radialGradient id="g12" cx="628.2" cy="83.4" r="61.4" gradientUnits="userSpaceOnUse">
			<stop offset="0" stop-color="#34353c"/>
			<stop offset=".21" stop-color="#313239"/>
			<stop offset=".51" stop-color="#292a30"/>
			<stop offset=".86" stop-color="#1a1b20"/>
			<stop offset="1" stop-color="#121317"/>
		</radialGradient>
		<radialGradient id="g13" cx="631" cy="107.6" r="27.1" gradientUnits="userSpaceOnUse">
			<stop offset="0" stop-color="#67696e"/>
			<stop offset="1" stop-color="#484a52"/>
		</radialGradient>
		<radialGradient id="g14" cx="551.7" cy="277.9" r="48" gradientUnits="userSpaceOnUse">
			<stop offset="0" stop-color="#67696e"/>
			<stop offset="1" stop-color="#484a52"/>
		</radialGradient>
		<radialGradient id="g15" cx="691.8" cy="431.5" r="66.2" gradientUnits="userSpaceOnUse">
			<stop offset="0" stop-color="#67696e"/>
			<stop offset="1" stop-color="#484a52"/>
		</radialGradient>
		<radialGradient id="g16" cx="684.4" cy="672.6" r="49.2" gradientUnits="userSpaceOnUse">
			<stop offset="0" stop-color="#34353c"/>
			<stop offset=".21" stop-color="#313239"/>
			<stop offset=".51" stop-color="#292a30"/>
			<stop offset=".86" stop-color="#1a1b20"/>
			<stop offset="1" stop-color="#121317"/>
		</radialGradient>
	</defs>
	<style>
		.s0 { fill: url(#g1) } 
		.s1 { fill: url(#g2) } 
		.s2 { fill: url(#g3) } 
		.s3 { fill: url(#g4) } 
		.s4 { fill: #d52328 } 
		.s5 { fill: url(#g5) } 
		.s6 { fill: url(#g6) } 
		.s7 { fill: #f15b66 } 
		.s8 { fill: #a81f23 } 
		.s9 { fill: #f04d51 } 
		.s10 { fill: url(#g7) } 
		.s11 { fill: url(#g8) } 
		.s12 { fill: url(#g9) } 
		.s13 { fill: url(#g10) } 
		.s14 { fill: url(#g11) } 
		.s15 { fill: url(#g12) } 
		.s16 { fill: url(#g13) } 
		.s17 { fill: url(#g14) } 
		.s18 { fill: url(#g15) } 
		.s19 { fill: url(#g16) } 
	</style>
	<path id="Layer" class="s0" d="m175.7 562.9v41.3l52.1-52.1h82.7v-82.7l-41.3 41.4v-41.4l41.4-41.4h59.3v-59.3l181.8-181.8 60.6 60.7 60.7-60.8 60.7-60.6v640.3h-599.5v-162.1z"/>
	<path id="Layer" class="s1" d="m673 186.8h-121.3l60.7-60.6z"/>
	<path id="Layer" class="s2" d="m612.4 126.2l121.3-121.3v121.3z"/>
	<path id="Layer" class="s3" d="m201.2 671.8l-67-66.9v133.9z"/>
	<path id="Layer" class="s4" d="m134.2 671.8l67-66.9v133.9z"/>
	<path id="Layer" class="s5" d="m201.2 699.6h33.8l-33.8-33.9z"/>
	<path id="Layer" class="s6" d="m134.2 734v-62.2l94.7 94.7h-62.1z"/>
	<path id="Layer" class="s7" d="m228.9 766.5l-67-66.9h133.9z"/>
	<path id="Layer" class="s4" d="m197.8 735.4l-31.1 31.1h62.2z"/>
	<path id="Layer" class="s7" d="m551.8 429.5l-0.1-121.3-121.3 121.3h121.3z"/>
	<path id="Layer" class="s8" d="m624.7 546.9v86.9l59.8-59.7v-27.2z"/>
	<path id="Layer" class="s7" d="m549.6 633.8v75.1l75.1-75.1z"/>
	<path id="Layer" class="s7" d="m684.4 574.1l-49.2 49.2h98.5z"/>
	<path id="Layer" class="s9" d="m551.8 308.3l-60.7-60.7v121.3l60.6-60.7z"/>
	<path id="Layer" class="s10" d="m310.6 428.1v41.3l-114.2 114.1v-41.3z"/>
	<path id="Layer copy" class="s11" d="m197.6 540.1v41.3l-114.2 114.1v-41.3z"/>
	<path id="Layer" class="s4" d="m227.8 510.8h41.4l-41.4 41.3z"/>
	<path id="Layer" class="s7" d="m269.2 469.4h41.3l-41.3 41.4z"/>
	<path id="Layer" class="s12" d="m310.6 428.1l41.3-0.1-41.3 41.4v-41.4z"/>
	<path id="Layer" class="s9" d="m196.4 583.5l-20.7 20.7v-41.3z"/>
	<path id="Layer" class="s4" d="m430.5 429.5l60.6-60.6h-121.3z"/>
	<path id="Layer" class="s9" d="m551.8 186.8l-60.8 60.8h121.4l-60.7-60.8z"/>
	<path id="Layer" class="s8" d="m673 186.8l-60.7 60.8h121.4z"/>
	<path id="Layer" class="s13" d="m13.4 765.2l121.2-121.2v121.2z"/>
	<path id="Layer" class="s9" d="m733.7 186.9h-60.7l60.7-60.7z"/>
	<path id="Layer" class="s4" d="m612.4 126.2l60.6 60.7h-121.2z"/>
	<path id="Layer" class="s14" d="m446.8 203.3l44.2-44.2v88.5z"/>
	<path id="Layer" class="s4" d="m491 247.6l-85.6-85.7v117.8l26.8 26.7z"/>
	<path id="Layer" class="s4" d="m491 247.6l60.7-60.7v-27.8h-60.7z"/>
	<path id="Layer" class="s15" d="m594.1 90.3l80.5-80.4v54.1l-12.4 12.4-80.4 80.4v-54.1z"/>
	<path id="Layer" class="s16" d="m603.9 80.5h54.2l-54.1 54.2z"/>
	<path id="Layer" class="s17" d="m551.8 308.3l-60.8-60.8h121.4l-60.7 60.7z"/>
	<path id="Layer" class="s18" d="m650 431.4l83.7-83.7v167.5l-83.7-83.7z"/>
	<path id="Layer" class="s19" d="m733.7 623.3h-98.5l98.5 98.5z"/>
	<path id="Layer" class="s4" d="m635.2 623.3l-143.2 143.2h196.9l44.8-44.7z"/>
	<path id="Layer" class="s8" d="m733.7 721.8l-44.7-44.7v89.4z"/>
	<path id="Layer" class="s9" d="m533.6 692.9l-73.6 73.6h147.2z"/>
	<path id="Layer" class="s8" d="m673 308.2l-60.7-60.7h121.4z"/>
</svg>